<svg width="67" height="26" viewBox="0 0 67 26" fill="none" xmlns="http://www.w3.org/2000/svg">
<path d="M12.6441 1.68359C7.02677 1.68359 1.99805 5.5131 1.99805 11.2319C1.99805 16.9506 5.90076 20.4356 10.9551 21.3675V23.7801C10.9564 23.8389 10.9723 23.8964 11.0014 23.9476C11.0304 23.9988 11.0716 24.0422 11.1214 24.0737L11.3901 24.2778C11.442 24.3027 11.4989 24.3157 11.5565 24.3157C11.6141 24.3157 11.6709 24.3027 11.7228 24.2778C14.7682 23.2055 23.4181 19.274 23.4181 11.6404C23.3926 5.64084 18.9524 1.68359 12.6441 1.68359Z" fill="white"/>
<path d="M39.9969 10.5731H38.4814V5.79308C38.4814 5.56546 38.2985 5.37801 38.0764 5.37801H36.8484C36.6263 5.37801 36.4434 5.56546 36.4434 5.79308V18.9281C36.4434 19.1557 36.6263 19.3432 36.8484 19.3432H38.0634C38.2855 19.3432 38.4684 19.1557 38.4684 18.9281V12.4878H39.9839V19.4905C39.9839 19.7181 40.1668 19.9055 40.3889 19.9055H41.6039C41.826 19.9055 42.0089 19.7181 42.0089 19.4905V5.56546C42.0089 5.33784 41.826 5.15039 41.6039 5.15039H40.4019C40.1798 5.15039 39.9969 5.33784 39.9969 5.56546V10.5731Z" fill="white"/>
<path d="M52.7341 12.6895L52.6296 11.7255C52.6035 11.4979 52.4075 11.3372 52.1985 11.3506L49.5725 11.5514H46.032V10.2393H50.9312C51.1533 10.2393 51.3362 10.0518 51.3362 9.82419V8.90032C51.3362 8.6727 51.1533 8.48525 50.9312 8.48525H46.032V7.18648H51.493C51.7151 7.18648 51.898 6.99903 51.898 6.77141V5.79398C51.898 5.56636 51.7151 5.37891 51.493 5.37891H44.3728C44.1507 5.37891 43.9678 5.56636 43.9678 5.79398L44.007 12.9573C44.007 13.1849 44.1899 13.3724 44.412 13.3724H49.6248L52.3553 13.1582C52.5904 13.1314 52.7603 12.9171 52.7341 12.6895Z" fill="white"/>
<path d="M53.8438 5.56614V13.4123C53.8438 13.64 54.0267 13.8274 54.2488 13.8274H55.5683C55.7904 13.8274 55.9733 13.64 55.9733 13.4123V5.56614C55.9733 5.33852 55.7904 5.15107 55.5683 5.15107H54.2488C54.0267 5.13768 53.8438 5.32513 53.8438 5.56614Z" fill="white"/>
<path d="M32.8368 9.21136H34.8226C35.0447 9.21136 35.2276 9.02391 35.2276 8.79629V7.76531C35.2276 7.53769 35.0447 7.35023 34.8226 7.35023H32.8368V5.85062C32.8368 5.623 32.6539 5.43555 32.4318 5.43555H31.1645C30.9424 5.43555 30.7595 5.623 30.7595 5.85062V7.33684H28.6299C28.4079 7.33684 28.2249 7.5243 28.2249 7.75192V8.7829C28.2249 9.01052 28.4079 9.19797 28.6299 9.19797H30.7595V12.1303L27.9506 14.9688C27.7938 15.1295 27.7938 15.3973 27.9506 15.5579L28.6561 16.2944C28.8129 16.455 29.0741 16.455 29.2309 16.2944L31.883 13.6165L34.2085 16.1203C34.3653 16.2944 34.6266 16.2944 34.7834 16.1337L35.515 15.4241C35.6848 15.2768 35.6979 15.009 35.5411 14.8483L32.8368 11.9294V9.21136Z" fill="white"/>
<path d="M64.5949 5.12456H62.2694V2.74124C62.2694 2.51362 62.0865 2.32617 61.8644 2.32617H60.8845C60.6624 2.32617 60.4795 2.51362 60.4795 2.74124V5.12456H58.154C57.9319 5.12456 57.749 5.31201 57.749 5.53963V6.54384C57.749 6.77146 57.9319 6.95891 58.154 6.95891H60.4795V9.34223C60.4795 9.56985 60.6624 9.7573 60.8845 9.7573H61.8644C62.0865 9.7573 62.2694 9.56985 62.2694 9.34223V6.9723H64.5949C64.817 6.9723 64.9999 6.78485 64.9999 6.55723V5.55302C65.013 5.31201 64.83 5.12456 64.5949 5.12456Z" fill="white"/>
<path d="M51.691 13.959C49.3394 13.959 47.6279 15.3917 47.6279 17.3867C47.6279 19.4219 49.3002 20.8411 51.691 20.8411C54.0688 20.8411 55.7411 19.4219 55.7411 17.3867C55.728 15.3917 54.0296 13.959 51.691 13.959ZM51.691 15.7933C52.8146 15.7933 53.6377 16.4628 53.6377 17.3867C53.6377 18.3373 52.8407 18.9934 51.691 18.9934C50.5283 18.9934 49.7183 18.3373 49.7183 17.3867C49.7183 16.4628 50.5413 15.7933 51.691 15.7933Z" fill="white"/>
</svg>
