<svg xmlns="http://www.w3.org/2000/svg" width="70" height="24" viewBox="0 0 70 24" fill="none">
<path d="M13.1489 0C7.19205 0 1.85938 4.06098 1.85938 10.1254C1.85938 16.1898 5.99797 19.8854 11.3578 20.8736V23.4321C11.3592 23.4944 11.3761 23.5554 11.4069 23.6097C11.4376 23.664 11.4814 23.71 11.5342 23.7434L11.8191 23.9598C11.8742 23.9862 11.9345 24 11.9955 24C12.0566 24 12.1169 23.9862 12.1719 23.9598C15.4014 22.8228 24.5742 18.6536 24.5742 10.5587C24.547 4.19643 19.8385 0 13.1489 0Z" fill="#3B7CF3"/>
<path d="M42.1473 9.41844H40.5402V4.34951C40.5402 4.10813 40.3462 3.90935 40.1107 3.90935H38.8084C38.5729 3.90935 38.3789 4.10813 38.3789 4.34951V18.2784C38.3789 18.5198 38.5729 18.7186 38.8084 18.7186H40.0968C40.3324 18.7186 40.5263 18.5198 40.5263 18.2784V11.4489H42.1334V18.8748C42.1334 19.1162 42.3274 19.3149 42.5629 19.3149H43.8513C44.0869 19.3149 44.2808 19.1162 44.2808 18.8748V4.10813C44.2808 3.86675 44.0869 3.66797 43.8513 3.66797H42.5768C42.3412 3.66797 42.1473 3.86675 42.1473 4.10813V9.41844Z" fill="#1A1A1A"/>
<path d="M55.6536 11.6626L55.5428 10.6403C55.5151 10.399 55.3073 10.2286 55.0856 10.2428L52.3009 10.4558H48.5464V9.06429H53.7418C53.9773 9.06429 54.1712 8.8655 54.1712 8.62413V7.64442C54.1712 7.40304 53.9773 7.20426 53.7418 7.20426H48.5464V5.82698H54.3375C54.573 5.82698 54.767 5.6282 54.767 5.38682V4.35032C54.767 4.10894 54.573 3.91016 54.3375 3.91016H46.7869C46.5514 3.91016 46.3574 4.10894 46.3574 4.35032L46.399 11.9466C46.399 12.188 46.5929 12.3868 46.8285 12.3868H52.3563L55.2519 12.1596C55.5012 12.1312 55.6813 11.904 55.6536 11.6626Z" fill="#1A1A1A"/>
<path d="M56.8242 4.10884V12.4293C56.8242 12.6707 57.0182 12.8694 57.2537 12.8694H58.653C58.8885 12.8694 59.0825 12.6707 59.0825 12.4293V4.10884C59.0825 3.86747 58.8885 3.66868 58.653 3.66868H57.2537C57.0182 3.65449 56.8242 3.85327 56.8242 4.10884Z" fill="#1A1A1A"/>
<path d="M34.5542 7.97278H36.6601C36.8956 7.97278 37.0896 7.774 37.0896 7.53263V6.43932C37.0896 6.19795 36.8956 5.99917 36.6601 5.99917H34.5542V4.40891C34.5542 4.16753 34.3603 3.96875 34.1248 3.96875H32.7809C32.5454 3.96875 32.3514 4.16753 32.3514 4.40891V5.98497H30.0932C29.8576 5.98497 29.6637 6.18375 29.6637 6.42513V7.51843C29.6637 7.7598 29.8576 7.95859 30.0932 7.95859H32.3514V11.0681L29.3727 14.0782C29.2065 14.2486 29.2065 14.5326 29.3727 14.703L30.1209 15.4839C30.2871 15.6543 30.5642 15.6543 30.7305 15.4839L33.5429 12.6442L36.0089 15.2993C36.1752 15.4839 36.4523 15.4839 36.6185 15.3135L37.3944 14.561C37.5745 14.4048 37.5883 14.1208 37.4221 13.9504L34.5542 10.8551V7.97278Z" fill="#1A1A1A"/>
<path d="M68.2362 3.64331H65.7701V1.11594C65.7701 0.874563 65.5762 0.675781 65.3407 0.675781H64.3016C64.0661 0.675781 63.8721 0.874563 63.8721 1.11594V3.64331H61.406C61.1705 3.64331 60.9766 3.84209 60.9766 4.08347V5.14837C60.9766 5.38975 61.1705 5.58853 61.406 5.58853H63.8721V8.1159C63.8721 8.35728 64.0661 8.55606 64.3016 8.55606H65.3407C65.5762 8.55606 65.7701 8.35728 65.7701 8.1159V5.60273H68.2362C68.4717 5.60273 68.6657 5.40395 68.6657 5.16257V4.09767C68.6795 3.84209 68.4856 3.64331 68.2362 3.64331Z" fill="#3B7CF3"/>
<path d="M54.5509 13.0156C52.0571 13.0156 50.2422 14.5349 50.2422 16.6505C50.2422 18.8087 52.0155 20.3138 54.5509 20.3138C57.0723 20.3138 58.8457 18.8087 58.8457 16.6505C58.8318 14.5349 57.0308 13.0156 54.5509 13.0156ZM54.5509 14.9608C55.7423 14.9608 56.6152 15.6708 56.6152 16.6505C56.6152 17.6586 55.77 18.3543 54.5509 18.3543C53.3178 18.3543 52.4589 17.6586 52.4589 16.6505C52.4589 15.6708 53.3317 14.9608 54.5509 14.9608Z" fill="#1A1A1A"/>
</svg>