<svg width="80" height="32" viewBox="0 0 80 32" fill="none" xmlns="http://www.w3.org/2000/svg">
<path d="M14.1807 1.99023C7.22599 1.99023 1 6.7315 1 13.8118C1 20.8922 5.83189 25.2068 12.0896 26.3605V29.3476C12.0913 29.4204 12.1109 29.4916 12.1469 29.555C12.1828 29.6184 12.2338 29.672 12.2955 29.7111L12.6282 29.9638C12.6925 29.9946 12.7628 30.0107 12.8341 30.0107C12.9054 30.0107 12.9758 29.9946 13.0401 29.9638C16.8106 28.6362 27.5199 23.7686 27.5199 14.3177C27.4882 6.88965 21.991 1.99023 14.1807 1.99023Z" fill="white"/>
<path d="M48.0432 12.995H46.1669V7.07696C46.1669 6.79514 45.9404 6.56306 45.6654 6.56306H44.145C43.87 6.56306 43.6436 6.79514 43.6436 7.07696V23.3392C43.6436 23.621 43.87 23.8531 44.145 23.8531H45.6493C45.9242 23.8531 46.1507 23.621 46.1507 23.3392V15.3656H48.027V24.0355C48.027 24.3173 48.2535 24.5494 48.5284 24.5494H50.0327C50.3077 24.5494 50.5342 24.3173 50.5342 24.0355V6.79514C50.5342 6.51333 50.3077 6.28125 50.0327 6.28125H48.5446C48.2696 6.28125 48.0432 6.51333 48.0432 6.79514V12.995Z" fill="white"/>
<path d="M63.8154 15.6156L63.686 14.4221C63.6537 14.1403 63.411 13.9413 63.1522 13.9579L59.901 14.2066H55.5176V12.582H61.5832C61.8582 12.582 62.0847 12.3499 62.0847 12.0681V10.9243C62.0847 10.6425 61.8582 10.4104 61.5832 10.4104H55.5176V8.80238H62.2788C62.5538 8.80238 62.7802 8.5703 62.7802 8.28849V7.07835C62.7802 6.79653 62.5538 6.56445 62.2788 6.56445H53.4633C53.1884 6.56445 52.9619 6.79653 52.9619 7.07835L53.0104 15.9472C53.0104 16.229 53.2369 16.4611 53.5119 16.4611H59.9657L63.3463 16.1958C63.6375 16.1627 63.8478 15.8974 63.8154 15.6156Z" fill="white"/>
<path d="M65.1865 6.79598V16.5102C65.1865 16.7921 65.413 17.0241 65.688 17.0241H67.3216C67.5966 17.0241 67.8231 16.7921 67.8231 16.5102V6.79598C67.8231 6.51417 67.5966 6.28209 67.3216 6.28209H65.688C65.413 6.26551 65.1865 6.49759 65.1865 6.79598Z" fill="white"/>
<path d="M39.1785 11.3076H41.6371C41.9121 11.3076 42.1385 11.0755 42.1385 10.7937V9.51725C42.1385 9.23544 41.9121 9.00336 41.6371 9.00336H39.1785V7.14671C39.1785 6.86489 38.952 6.63281 38.677 6.63281H37.1081C36.8331 6.63281 36.6066 6.86489 36.6066 7.14671V8.98678H33.9701C33.6951 8.98678 33.4687 9.21886 33.4687 9.50068V10.7771C33.4687 11.0589 33.6951 11.291 33.9701 11.291H36.6066V14.9214L33.129 18.4358C32.9349 18.6347 32.9349 18.9663 33.129 19.1652L34.0024 20.077C34.1965 20.2759 34.52 20.2759 34.7141 20.077L37.9977 16.7615L40.8769 19.8615C41.071 20.077 41.3945 20.077 41.5886 19.878L42.4944 18.9994C42.7046 18.8171 42.7208 18.4855 42.5267 18.2866L39.1785 14.6728V11.3076Z" fill="white"/>
<path d="M78.4972 6.2498H75.6181V3.29905C75.6181 3.01724 75.3916 2.78516 75.1166 2.78516H73.9035C73.6285 2.78516 73.4021 3.01724 73.4021 3.29905V6.2498H70.5229C70.2479 6.2498 70.0215 6.48188 70.0215 6.7637V8.00699C70.0215 8.2888 70.2479 8.52088 70.5229 8.52088H73.4021V11.4716C73.4021 11.7534 73.6285 11.9855 73.9035 11.9855H75.1166C75.3916 11.9855 75.6181 11.7534 75.6181 11.4716V8.53746H78.4972C78.7722 8.53746 78.9987 8.30538 78.9987 8.02357V6.78027C79.0148 6.48188 78.7884 6.2498 78.4972 6.2498Z" fill="white"/>
<path d="M62.5207 17.1895C59.6092 17.1895 57.4902 18.9632 57.4902 21.4332C57.4902 23.953 59.5607 25.7102 62.5207 25.7102C65.4646 25.7102 67.535 23.953 67.535 21.4332C67.5188 18.9632 65.416 17.1895 62.5207 17.1895ZM62.5207 19.4605C63.9118 19.4605 64.9308 20.2894 64.9308 21.4332C64.9308 22.6102 63.9441 23.4225 62.5207 23.4225C61.0811 23.4225 60.0783 22.6102 60.0783 21.4332C60.0783 20.2894 61.0973 19.4605 62.5207 19.4605Z" fill="white"/>
</svg>
